<mxfile host="Electron" agent="Mozilla/5.0 (Windows NT 10.0; Win64; x64) AppleWebKit/537.36 (KHTML, like Gecko) draw.io/28.1.2 Chrome/138.0.7204.243 Electron/37.4.0 Safari/537.36" version="28.1.2">
  <diagram name="PÃ¡gina-1" id="Y0tU2m3n07icCboPz5NC">
    <mxGraphModel dx="703" dy="843" grid="1" gridSize="10" guides="1" tooltips="1" connect="1" arrows="1" fold="1" page="1" pageScale="1" pageWidth="827" pageHeight="1169" math="0" shadow="0">
      <root>
        <mxCell id="0" />
        <mxCell id="1" parent="0" />
        <mxCell id="mgvMBmywdV9Q-IOpZ4nf-20" style="edgeStyle=orthogonalEdgeStyle;rounded=0;orthogonalLoop=1;jettySize=auto;html=1;exitX=1;exitY=1;exitDx=0;exitDy=0;entryX=1;entryY=0;entryDx=0;entryDy=0;" parent="1" source="mgvMBmywdV9Q-IOpZ4nf-1" target="mgvMBmywdV9Q-IOpZ4nf-13" edge="1">
          <mxGeometry relative="1" as="geometry" />
        </mxCell>
        <mxCell id="mgvMBmywdV9Q-IOpZ4nf-24" value="carpetas 0..*" style="edgeLabel;html=1;align=center;verticalAlign=middle;resizable=0;points=[];" parent="mgvMBmywdV9Q-IOpZ4nf-20" vertex="1" connectable="0">
          <mxGeometry x="-0.1032" y="1" relative="1" as="geometry">
            <mxPoint as="offset" />
          </mxGeometry>
        </mxCell>
        <mxCell id="mgvMBmywdV9Q-IOpZ4nf-1" value="&amp;nbsp;ClienteDeCorreo" style="swimlane;fontStyle=1;align=center;verticalAlign=top;childLayout=stackLayout;horizontal=1;startSize=26;horizontalStack=0;resizeParent=1;resizeParentMax=0;resizeLast=0;collapsible=1;marginBottom=0;whiteSpace=wrap;html=1;" parent="1" vertex="1">
          <mxGeometry x="60" y="140" width="180" height="104" as="geometry" />
        </mxCell>
        <mxCell id="mgvMBmywdV9Q-IOpZ4nf-3" value="" style="line;strokeWidth=1;fillColor=none;align=left;verticalAlign=middle;spacingTop=-1;spacingLeft=3;spacingRight=3;rotatable=0;labelPosition=right;points=[];portConstraint=eastwest;strokeColor=inherit;" parent="mgvMBmywdV9Q-IOpZ4nf-1" vertex="1">
          <mxGeometry y="26" width="180" height="8" as="geometry" />
        </mxCell>
        <mxCell id="mgvMBmywdV9Q-IOpZ4nf-4" value="+ recibir(email: Email)&lt;div&gt;+ buscar(texto: String): Email&lt;/div&gt;&lt;div&gt;+ espacioOcupado(): Integer&lt;/div&gt;" style="text;strokeColor=none;fillColor=none;align=left;verticalAlign=top;spacingLeft=4;spacingRight=4;overflow=hidden;rotatable=0;points=[[0,0.5],[1,0.5]];portConstraint=eastwest;whiteSpace=wrap;html=1;" parent="mgvMBmywdV9Q-IOpZ4nf-1" vertex="1">
          <mxGeometry y="34" width="180" height="70" as="geometry" />
        </mxCell>
        <mxCell id="mgvMBmywdV9Q-IOpZ4nf-22" style="edgeStyle=orthogonalEdgeStyle;rounded=0;orthogonalLoop=1;jettySize=auto;html=1;exitX=0.25;exitY=1;exitDx=0;exitDy=0;entryX=0.25;entryY=0;entryDx=0;entryDy=0;" parent="1" source="mgvMBmywdV9Q-IOpZ4nf-5" target="mgvMBmywdV9Q-IOpZ4nf-9" edge="1">
          <mxGeometry relative="1" as="geometry" />
        </mxCell>
        <mxCell id="mgvMBmywdV9Q-IOpZ4nf-26" value="adjuntos 0..*" style="edgeLabel;html=1;align=center;verticalAlign=middle;resizable=0;points=[];" parent="mgvMBmywdV9Q-IOpZ4nf-22" vertex="1" connectable="0">
          <mxGeometry x="-0.3964" y="-2" relative="1" as="geometry">
            <mxPoint as="offset" />
          </mxGeometry>
        </mxCell>
        <mxCell id="mgvMBmywdV9Q-IOpZ4nf-5" value="Email" style="swimlane;fontStyle=1;align=center;verticalAlign=top;childLayout=stackLayout;horizontal=1;startSize=26;horizontalStack=0;resizeParent=1;resizeParentMax=0;resizeLast=0;collapsible=1;marginBottom=0;whiteSpace=wrap;html=1;" parent="1" vertex="1">
          <mxGeometry x="350" y="280" width="210" height="200" as="geometry" />
        </mxCell>
        <mxCell id="mgvMBmywdV9Q-IOpZ4nf-6" value="- titulo: String&lt;div&gt;- titulo: String&lt;/div&gt;" style="text;strokeColor=none;fillColor=none;align=left;verticalAlign=top;spacingLeft=4;spacingRight=4;overflow=hidden;rotatable=0;points=[[0,0.5],[1,0.5]];portConstraint=eastwest;whiteSpace=wrap;html=1;" parent="mgvMBmywdV9Q-IOpZ4nf-5" vertex="1">
          <mxGeometry y="26" width="210" height="54" as="geometry" />
        </mxCell>
        <mxCell id="mgvMBmywdV9Q-IOpZ4nf-7" value="" style="line;strokeWidth=1;fillColor=none;align=left;verticalAlign=middle;spacingTop=-1;spacingLeft=3;spacingRight=3;rotatable=0;labelPosition=right;points=[];portConstraint=eastwest;strokeColor=inherit;" parent="mgvMBmywdV9Q-IOpZ4nf-5" vertex="1">
          <mxGeometry y="80" width="210" height="8" as="geometry" />
        </mxCell>
        <mxCell id="mgvMBmywdV9Q-IOpZ4nf-8" value="+ getTitulo(): String&lt;div&gt;+ getCuerpo(): String&lt;/div&gt;&lt;div&gt;+adjuntos(): Archivo[*]&lt;/div&gt;&lt;div&gt;+ obtenerTamanio(): integer&lt;/div&gt;&lt;div&gt;+ContieneTituloyCuerpo(texto:string)&lt;/div&gt;&lt;div&gt;+ equals(obj: Object): boolean&lt;/div&gt;" style="text;strokeColor=none;fillColor=none;align=left;verticalAlign=top;spacingLeft=4;spacingRight=4;overflow=hidden;rotatable=0;points=[[0,0.5],[1,0.5]];portConstraint=eastwest;whiteSpace=wrap;html=1;" parent="mgvMBmywdV9Q-IOpZ4nf-5" vertex="1">
          <mxGeometry y="88" width="210" height="112" as="geometry" />
        </mxCell>
        <mxCell id="mgvMBmywdV9Q-IOpZ4nf-9" value="archivo" style="swimlane;fontStyle=1;align=center;verticalAlign=top;childLayout=stackLayout;horizontal=1;startSize=26;horizontalStack=0;resizeParent=1;resizeParentMax=0;resizeLast=0;collapsible=1;marginBottom=0;whiteSpace=wrap;html=1;" parent="1" vertex="1">
          <mxGeometry x="333" y="600" width="160" height="86" as="geometry" />
        </mxCell>
        <mxCell id="mgvMBmywdV9Q-IOpZ4nf-10" value="- nombre: string" style="text;strokeColor=none;fillColor=none;align=left;verticalAlign=top;spacingLeft=4;spacingRight=4;overflow=hidden;rotatable=0;points=[[0,0.5],[1,0.5]];portConstraint=eastwest;whiteSpace=wrap;html=1;" parent="mgvMBmywdV9Q-IOpZ4nf-9" vertex="1">
          <mxGeometry y="26" width="160" height="26" as="geometry" />
        </mxCell>
        <mxCell id="mgvMBmywdV9Q-IOpZ4nf-11" value="" style="line;strokeWidth=1;fillColor=none;align=left;verticalAlign=middle;spacingTop=-1;spacingLeft=3;spacingRight=3;rotatable=0;labelPosition=right;points=[];portConstraint=eastwest;strokeColor=inherit;" parent="mgvMBmywdV9Q-IOpZ4nf-9" vertex="1">
          <mxGeometry y="52" width="160" height="8" as="geometry" />
        </mxCell>
        <mxCell id="mgvMBmywdV9Q-IOpZ4nf-12" value="+ tamanio(): Integer" style="text;strokeColor=none;fillColor=none;align=left;verticalAlign=top;spacingLeft=4;spacingRight=4;overflow=hidden;rotatable=0;points=[[0,0.5],[1,0.5]];portConstraint=eastwest;whiteSpace=wrap;html=1;" parent="mgvMBmywdV9Q-IOpZ4nf-9" vertex="1">
          <mxGeometry y="60" width="160" height="26" as="geometry" />
        </mxCell>
        <mxCell id="mgvMBmywdV9Q-IOpZ4nf-13" value="Carpeta" style="swimlane;fontStyle=1;align=center;verticalAlign=top;childLayout=stackLayout;horizontal=1;startSize=26;horizontalStack=0;resizeParent=1;resizeParentMax=0;resizeLast=0;collapsible=1;marginBottom=0;whiteSpace=wrap;html=1;" parent="1" vertex="1">
          <mxGeometry x="30" y="400" width="230" height="210" as="geometry" />
        </mxCell>
        <mxCell id="mgvMBmywdV9Q-IOpZ4nf-14" value="- nombre: String" style="text;strokeColor=none;fillColor=none;align=left;verticalAlign=top;spacingLeft=4;spacingRight=4;overflow=hidden;rotatable=0;points=[[0,0.5],[1,0.5]];portConstraint=eastwest;whiteSpace=wrap;html=1;" parent="mgvMBmywdV9Q-IOpZ4nf-13" vertex="1">
          <mxGeometry y="26" width="230" height="44" as="geometry" />
        </mxCell>
        <mxCell id="mgvMBmywdV9Q-IOpZ4nf-15" value="" style="line;strokeWidth=1;fillColor=none;align=left;verticalAlign=middle;spacingTop=-1;spacingLeft=3;spacingRight=3;rotatable=0;labelPosition=right;points=[];portConstraint=eastwest;strokeColor=inherit;" parent="mgvMBmywdV9Q-IOpZ4nf-13" vertex="1">
          <mxGeometry y="70" width="230" height="8" as="geometry" />
        </mxCell>
        <mxCell id="mgvMBmywdV9Q-IOpZ4nf-16" value="&lt;div&gt;&lt;br&gt;+ getNombre(): string&lt;/div&gt;&lt;div&gt;+ getEmails(): Email[*]&lt;/div&gt;&lt;div&gt;+ setEmail(email: Emal)&lt;/div&gt;&lt;div&gt;&lt;div&gt;+ mover(email:Emai, destino: Carpeta)&lt;/div&gt;&lt;/div&gt;&lt;div&gt;+ obtenerEmail(text:: String): Email&lt;/div&gt;&lt;div&gt;+ obtenerTamanioCarpeta(): integer&lt;/div&gt;" style="text;strokeColor=none;fillColor=none;align=left;verticalAlign=top;spacingLeft=4;spacingRight=4;overflow=hidden;rotatable=0;points=[[0,0.5],[1,0.5]];portConstraint=eastwest;whiteSpace=wrap;html=1;" parent="mgvMBmywdV9Q-IOpZ4nf-13" vertex="1">
          <mxGeometry y="78" width="230" height="132" as="geometry" />
        </mxCell>
        <mxCell id="mgvMBmywdV9Q-IOpZ4nf-19" style="edgeStyle=orthogonalEdgeStyle;rounded=0;orthogonalLoop=1;jettySize=auto;html=1;exitX=0;exitY=1;exitDx=0;exitDy=0;entryX=0.01;entryY=-0.03;entryDx=0;entryDy=0;entryPerimeter=0;" parent="1" source="mgvMBmywdV9Q-IOpZ4nf-1" target="mgvMBmywdV9Q-IOpZ4nf-13" edge="1">
          <mxGeometry relative="1" as="geometry" />
        </mxCell>
        <mxCell id="mgvMBmywdV9Q-IOpZ4nf-23" value="inbox 1" style="edgeLabel;html=1;align=center;verticalAlign=middle;resizable=0;points=[];" parent="mgvMBmywdV9Q-IOpZ4nf-19" vertex="1" connectable="0">
          <mxGeometry x="-0.0522" y="1" relative="1" as="geometry">
            <mxPoint as="offset" />
          </mxGeometry>
        </mxCell>
        <mxCell id="mgvMBmywdV9Q-IOpZ4nf-21" style="edgeStyle=orthogonalEdgeStyle;rounded=0;orthogonalLoop=1;jettySize=auto;html=1;exitX=1;exitY=0.5;exitDx=0;exitDy=0;entryX=0;entryY=0.5;entryDx=0;entryDy=0;" parent="1" source="mgvMBmywdV9Q-IOpZ4nf-14" target="mgvMBmywdV9Q-IOpZ4nf-6" edge="1">
          <mxGeometry relative="1" as="geometry">
            <mxPoint x="330" y="428.80952380952374" as="targetPoint" />
          </mxGeometry>
        </mxCell>
        <mxCell id="mgvMBmywdV9Q-IOpZ4nf-25" value="emails 0..*" style="edgeLabel;html=1;align=center;verticalAlign=middle;resizable=0;points=[];" parent="mgvMBmywdV9Q-IOpZ4nf-21" vertex="1" connectable="0">
          <mxGeometry x="0.0354" relative="1" as="geometry">
            <mxPoint as="offset" />
          </mxGeometry>
        </mxCell>
      </root>
    </mxGraphModel>
  </diagram>
</mxfile>
